<svg id="visual" viewBox="0 0 3840 2160" width="3840" height="2160" xmlns="http://www.w3.org/2000/svg" xmlns:xlink="http://www.w3.org/1999/xlink" version="1.1"><path d="M0 66L549 131L1097 131L1646 174L2194 152L2743 131L3291 174L3840 174L3840 0L3291 0L2743 0L2194 0L1646 0L1097 0L549 0L0 0Z" fill="#f1c395"></path><path d="M0 260L549 368L1097 217L1646 303L2194 347L2743 476L3291 347L3840 433L3840 172L3291 172L2743 129L2194 150L1646 172L1097 129L549 129L0 64Z" fill="#f2c69a"></path><path d="M0 563L549 995L1097 606L1646 498L2194 541L2743 865L3291 692L3840 800L3840 431L3291 345L2743 474L2194 345L1646 301L1097 215L549 366L0 258Z" fill="#f2c89e"></path><path d="M0 671L549 1124L1097 865L1646 735L2194 714L2743 1059L3291 822L3840 951L3840 798L3291 690L2743 863L2194 539L1646 496L1097 604L549 993L0 561Z" fill="#f3cba3"></path><path d="M0 779L549 1189L1097 995L1646 800L2194 757L2743 1103L3291 865L3840 1059L3840 949L3291 820L2743 1057L2194 712L1646 733L1097 863L549 1122L0 669Z" fill="#f3cda7"></path><path d="M0 865L549 1297L1097 1059L1646 930L2194 887L2743 1146L3291 951L3840 1146L3840 1057L3291 863L2743 1101L2194 755L1646 798L1097 993L549 1187L0 777Z" fill="#f4d0ac"></path><path d="M0 951L549 1405L1097 1124L1646 1059L2194 930L2743 1211L3291 1081L3840 1297L3840 1144L3291 949L2743 1144L2194 885L1646 928L1097 1057L549 1295L0 863Z" fill="#f4d2b0"></path><path d="M0 995L549 1513L1097 1254L1646 1103L2194 995L2743 1319L3291 1189L3840 1448L3840 1295L3291 1079L2743 1209L2194 928L1646 1057L1097 1122L549 1403L0 949Z" fill="#f5d5b5"></path><path d="M0 1837L549 1729L1097 1707L1646 1729L2194 1643L2743 1729L3291 1707L3840 1794L3840 1446L3291 1187L2743 1317L2194 993L1646 1101L1097 1252L549 1511L0 993Z" fill="#f6d8b9"></path><path d="M0 2031L549 1880L1097 1945L1646 1902L2194 1794L2743 1902L3291 1945L3840 1945L3840 1792L3291 1705L2743 1727L2194 1641L1646 1727L1097 1705L549 1727L0 1835Z" fill="#f7dbbe"></path><path d="M0 2096L549 1967L1097 1988L1646 1988L2194 1967L2743 2075L3291 2096L3840 1988L3840 1943L3291 1943L2743 1900L2194 1792L1646 1900L1097 1943L549 1878L0 2029Z" fill="#f7ddc2"></path><path d="M0 2161L549 2161L1097 2161L1646 2161L2194 2161L2743 2161L3291 2161L3840 2161L3840 1986L3291 2094L2743 2073L2194 1965L1646 1986L1097 1986L549 1965L0 2094Z" fill="#f8e0c7"></path></svg>